<?xml version="1.0" encoding="utf-8"?>
<!-- Generator: Adobe Illustrator 17.0.0, SVG Export Plug-In . SVG Version: 6.00 Build 0)  -->
<!DOCTYPE svg PUBLIC "-//W3C//DTD SVG 1.1//EN" "http://www.w3.org/Graphics/SVG/1.1/DTD/svg11.dtd">
<svg version="1.1" id="Layer_1" xmlns="http://www.w3.org/2000/svg" xmlns:xlink="http://www.w3.org/1999/xlink" x="0px" y="0px"
	 width="116.25px" height="47.25px" viewBox="0 0 116.25 47.25" enable-background="new 0 0 116.25 47.25" xml:space="preserve">
<g>
	<path fill="#FFFFFF" d="M106.778,1.625c4.274,0,7.75,3.466,7.75,7.745c0,2.976-1.691,5.562-4.15,6.856V12.28l0.02-7.241
		c-1.349,0.667-1.62,1.39-1.958,2.471c-0.519,2.11-0.646,4.221-0.519,6.332c0.71-0.035,1.11,0.177,1.447,0.419v2.407
		c-0.819,0.285-1.684,0.444-2.59,0.444c-0.679,0-1.339-0.089-1.962-0.256v-4.573c0.578-0.089,1.151-0.325,1.683-0.729l-0.591-6.5
		l-0.349-0.007l0.016,3.57c-0.233,0.15-0.523,0.175-0.759,0.03l-0.334-3.608l-0.333,0.015l-0.334,3.563
		c-0.252,0.142-0.501,0.142-0.751,0l-0.02-3.534l-0.33,0.008l-0.701,6.415c0.457,0.407,1.051,0.682,1.685,0.785v4.18
		c-2.747-1.186-4.668-3.92-4.668-7.101C99.03,5.091,102.494,1.625,106.778,1.625"/>
	<path fill="#FFFFFF" d="M33.534,21.383l4.382-12.546h0.285l10.257,27.011c0,0.046,0.03,0.128,0.083,0.242
		c0.394,1.159,0.911,1.999,1.565,2.53c0.649,0.534,1.452,0.793,2.418,0.775v0.356h-9.889v-0.356c0.829-0.077,1.5-0.241,1.997-0.485
		c0.51-0.245,0.766-0.83,0.766-1.763c0-0.24-0.113-0.746-0.328-1.512c-0.029-0.06-0.054-0.137-0.074-0.209
		c-0.019-0.074-0.035-0.144-0.052-0.175L37.03,14.112h-0.076l-2.83,8.216C33.922,22.007,33.728,21.689,33.534,21.383 M25.965,38.979
		c0.194-0.099,0.369-0.226,0.531-0.359c0.511-0.424,0.94-0.968,1.293-1.646c0.358-0.676,0.751-1.565,1.206-2.686
		c0.065-0.068,0.13-0.233,0.202-0.486l2.963-8.492c0.194,0.339,0.393,0.672,0.59,0.999l-2.586,7.493
		c-0.482,1.343-0.722,2.36-0.722,3.039c0,1.074,0.232,1.762,0.684,2.045c0.461,0.289,1.134,0.454,2.034,0.509v0.356h-4.687v-0.293
		C26.972,39.409,26.477,39.253,25.965,38.979"/>
	<path fill="#FFFFFF" d="M84.049,23.5V13.419c0-0.975-0.263-1.78-0.793-2.406c-0.532-0.628-1.363-0.944-2.486-0.944V9.724h9.596
		v0.345c-1.117,0-1.936,0.308-2.459,0.932c-0.512,0.617-0.773,1.429-0.773,2.418v22.779c0,2.211,1.072,3.316,3.232,3.316v0.327
		H80.77v-0.327c1.03,0,1.825-0.277,2.406-0.832c0.586-0.552,0.873-1.367,0.873-2.444V24.421H66.781v11.777
		c0,1.051,0.291,1.863,0.888,2.441c0.59,0.578,1.391,0.875,2.388,0.875v0.327h-9.604v-0.327c1.041,0,1.834-0.287,2.388-0.869
		c0.552-0.577,0.831-1.396,0.831-2.447V13.419c0-2.142-0.982-3.255-2.963-3.346V9.761h-0.256V9.724h9.604v0.345
		c-1.124,0-1.959,0.308-2.485,0.932c-0.532,0.617-0.791,1.429-0.791,2.418V23.5H84.049z"/>
	<path fill="#FFFFFF" d="M54.448,37.356V13.458c0-2.164-1.081-3.282-3.232-3.348V9.761h9.493v0.349
		c-0.901,0.027-1.647,0.301-2.264,0.818c-0.603,0.514-0.902,1.361-0.902,2.53v24.701c0,1.375-0.186,2.556-0.566,3.543
		c-0.366,0.976-0.86,1.747-1.472,2.328c-0.616,0.57-1.278,0.977-1.992,1.224c-0.712,0.242-1.438,0.371-2.173,0.371
		c-0.83,0-1.558-0.137-2.19-0.397c-0.638-0.257-1.174-0.572-1.616-0.949c-0.443-0.374-0.895-0.82-1.363-1.34l0.208-0.223
		c1.124,0.93,2.383,1.39,3.752,1.39c1.869,0,3.054-0.647,3.56-1.941C54.195,40.869,54.448,39.265,54.448,37.356"/>
	<path fill="#FFFFFF" d="M25.273,38.536c-0.746-0.544-1.726-1.843-2.957-3.902l-2.718-4.608c-1.527-2.587-3.189-4.318-4.988-5.19
		V24.75c1.414-0.26,2.596-0.745,3.547-1.463c0.945-0.727,1.643-1.584,2.104-2.588c0.455-1,0.684-2.048,0.684-3.142
		c0-0.859-0.135-1.724-0.415-2.61c-0.277-0.888-0.746-1.732-1.393-2.53c-0.646-0.797-1.554-1.456-2.72-1.971
		c-1.026-0.457-2.246-0.708-3.663-0.763c-0.191-0.007-0.396-0.017-0.609-0.017H1.722v0.426h0.406c0.695,0,1.339,0.255,1.921,0.741
		c0.584,0.489,0.889,1.335,0.889,2.536V36.15c0,0.814-0.157,1.466-0.466,1.945c-0.307,0.489-0.69,0.825-1.153,1.029
		c-0.469,0.194-0.997,0.305-1.597,0.334v0.325h9.588v-0.325c-2.181-0.074-3.272-1.171-3.272-3.315V25.122
		c0.713,0,1.322,0.041,1.853,0.122c0.52,0.08,1.112,0.289,1.772,0.611c0.348,0.176,0.714,0.414,1.091,0.709
		c0.331,0.256,0.673,0.568,1.026,0.92c0.754,0.755,1.49,1.743,2.222,2.956l3.596,5.952c0.051,0.049,0.215,0.287,0.49,0.707
		c0.261,0.409,0.45,0.722,0.598,0.926c0.232,0.318,0.447,0.61,0.647,0.889c0.21,0.284,0.422,0.575,0.649,0.869h5.492v-0.325
		C26.754,39.384,26.016,39.08,25.273,38.536z M12.754,24.024c-0.873,0.2-1.877,0.304-2.993,0.304H8.038V10.645
		c0.493-0.116,1.118-0.178,1.88-0.178c1.074,0,2.02,0.118,2.836,0.362c0.622,0.189,1.177,0.44,1.662,0.776
		c1.109,0.751,1.896,1.686,2.357,2.796c0.474,1.11,0.694,2.248,0.694,3.403c0,1.396-0.253,2.565-0.775,3.53
		c-0.52,0.962-1.35,1.696-2.505,2.213C13.756,23.745,13.279,23.901,12.754,24.024z"/>
	<path fill="#D8AC29" d="M22.205,16.658c1.697-0.127,2.464,0.143,4.175,1.054c3.278,2.09,5.371,7.482,8.059,11.229
		c1.707,2.381,4.627,2.338,7.19,2.338l-0.039-0.623c-1.21,0.187-2.206-0.299-3.203-1.645c-2.944-3.945-4.95-8.608-7.676-11.313
		c-1.953-1.433-4.999-1.93-8.506-1.836V16.658z"/>
</g>
</svg>
